<svg aria-hidden="true" style="position: absolute; width: 0; height: 0; overflow: hidden;" version="1.1" xmlns="http://www.w3.org/2000/svg" xmlns:xlink="http://www.w3.org/1999/xlink">
<defs>
<symbol id="icon-logo" viewBox="0 0 73 32">
<path d="M0 0h72.8v32h-72.8v-32z"></path>
</symbol>
<symbol id="icon-fb" viewBox="0 0 32 32">
<path fill="#eee4dd" style="fill: var(--color1, #eee4dd)" d="M32 16c0-8.837-7.163-16-16-16s-16 7.163-16 16c0 7.986 5.851 14.605 13.5 15.806v-11.181h-4.063v-4.625h4.063v-3.525c0-4.010 2.389-6.225 6.043-6.225 1.75 0 3.582 0.313 3.582 0.313v3.938h-2.017c-1.988 0-2.608 1.233-2.608 2.5v3h4.437l-0.709 4.625h-3.728v11.181c7.649-1.2 13.5-7.82 13.5-15.806z"></path>
</symbol>
<symbol id="icon-inst" viewBox="0 0 32 32">
<path fill="#eee4dd" style="fill: var(--color1, #eee4dd)" d="M16 2.881c4.275 0 4.781 0.019 6.463 0.094 1.562 0.069 2.406 0.331 2.969 0.55 0.744 0.288 1.281 0.637 1.838 1.194 0.562 0.563 0.906 1.094 1.194 1.837 0.219 0.563 0.481 1.412 0.55 2.969 0.075 1.688 0.094 2.194 0.094 6.463 0 4.275-0.019 4.781-0.094 6.463-0.069 1.562-0.331 2.406-0.55 2.969-0.288 0.744-0.638 1.281-1.194 1.838-0.563 0.562-1.094 0.906-1.838 1.194-0.562 0.219-1.412 0.481-2.969 0.55-1.688 0.075-2.194 0.094-6.463 0.094-4.275 0-4.781-0.019-6.463-0.094-1.563-0.069-2.406-0.331-2.969-0.55-0.744-0.288-1.281-0.638-1.838-1.194-0.563-0.563-0.906-1.094-1.194-1.838-0.219-0.562-0.481-1.412-0.55-2.969-0.075-1.688-0.094-2.194-0.094-6.463 0-4.275 0.019-4.781 0.094-6.463 0.069-1.563 0.331-2.406 0.55-2.969 0.288-0.744 0.638-1.281 1.194-1.838 0.563-0.563 1.094-0.906 1.838-1.194 0.563-0.219 1.412-0.481 2.969-0.55 1.681-0.075 2.188-0.094 6.463-0.094zM16 0c-4.344 0-4.887 0.019-6.594 0.094-1.7 0.075-2.869 0.35-3.881 0.744-1.056 0.412-1.95 0.956-2.837 1.85-0.894 0.888-1.438 1.781-1.85 2.831-0.394 1.019-0.669 2.181-0.744 3.881-0.075 1.713-0.094 2.256-0.094 6.6s0.019 4.888 0.094 6.594c0.075 1.7 0.35 2.869 0.744 3.881 0.413 1.056 0.956 1.95 1.85 2.837 0.887 0.888 1.781 1.438 2.831 1.844 1.019 0.394 2.181 0.669 3.881 0.744 1.706 0.075 2.25 0.094 6.594 0.094s4.888-0.019 6.594-0.094c1.7-0.075 2.869-0.35 3.881-0.744 1.050-0.406 1.944-0.956 2.831-1.844s1.437-1.781 1.844-2.831c0.394-1.019 0.669-2.181 0.744-3.881 0.075-1.706 0.094-2.25 0.094-6.594s-0.019-4.887-0.094-6.594c-0.075-1.7-0.35-2.869-0.744-3.881-0.394-1.063-0.937-1.956-1.831-2.844-0.888-0.887-1.781-1.438-2.831-1.844-1.019-0.394-2.181-0.669-3.881-0.744-1.712-0.081-2.256-0.1-6.6-0.1z"></path>
<path fill="#eee4dd" style="fill: var(--color1, #eee4dd)" d="M16 7.781c-4.537 0-8.219 3.681-8.219 8.219s3.681 8.219 8.219 8.219c4.537 0 8.219-3.681 8.219-8.219s-3.681-8.219-8.219-8.219zM16 21.331c-2.944 0-5.331-2.388-5.331-5.331s2.387-5.331 5.331-5.331c2.944 0 5.331 2.387 5.331 5.331s-2.388 5.331-5.331 5.331z"></path>
<path fill="#eee4dd" style="fill: var(--color1, #eee4dd)" d="M26.463 7.456c0 1.063-0.863 1.919-1.919 1.919-1.062 0-1.919-0.863-1.919-1.919 0-1.063 0.863-1.919 1.919-1.919s1.919 0.862 1.919 1.919z"></path>
</symbol>
<symbol id="icon-pi" viewBox="0 0 32 32">
<path fill="#eee4dd" style="fill: var(--color1, #eee4dd)" d="M16 0c-8.838 0-16 7.162-16 16 0 6.781 4.219 12.569 10.169 14.9-0.137-1.269-0.269-3.206 0.056-4.588 0.294-1.25 1.875-7.95 1.875-7.95s-0.481-0.956-0.481-2.375c0-2.225 1.287-3.888 2.894-3.888 1.363 0 2.025 1.025 2.025 2.256 0 1.375-0.875 3.425-1.325 5.325-0.375 1.594 0.8 2.894 2.369 2.894 2.844 0 5.031-3 5.031-7.325 0-3.831-2.75-6.513-6.681-6.513-4.55 0-7.225 3.412-7.225 6.944 0 1.375 0.531 2.85 1.194 3.65 0.131 0.156 0.15 0.3 0.113 0.456-0.119 0.506-0.394 1.594-0.444 1.812-0.069 0.294-0.231 0.356-0.537 0.212-2-0.931-3.25-3.85-3.25-6.2 0-5.050 3.669-9.681 10.569-9.681 5.55 0 9.862 3.956 9.862 9.244 0 5.512-3.475 9.95-8.3 9.95-1.619 0-3.144-0.844-3.669-1.837 0 0-0.8 3.056-0.994 3.806-0.363 1.388-1.338 3.131-1.988 4.194 1.5 0.463 3.088 0.712 4.737 0.712 8.837 0 16-7.163 16-16s-7.163-16-16-16z"></path>
</symbol>
</defs>

</svg>
